<?xml version="1.0" encoding="utf-8"?>
<!-- Generator: Adobe Illustrator 15.1.0, SVG Export Plug-In . SVG Version: 6.00 Build 0)  -->
<!DOCTYPE svg PUBLIC "-//W3C//DTD SVG 1.1//EN" "http://www.w3.org/Graphics/SVG/1.1/DTD/svg11.dtd">
<svg version="1.1" xmlns="http://www.w3.org/2000/svg" xmlns:xlink="http://www.w3.org/1999/xlink" x="0px" y="0px" width="500px"
	 height="500px" viewBox="0 0 1250 1250" enable-background="new 0 0 1250 1250" xml:space="preserve">
<g id="Forme_1_1_" enable-background="new    ">
	<g id="Forme_1">
		<g>
			<path fill-rule="evenodd" clip-rule="evenodd" fill="#F1EBEB" d="M1094.8,230.485c-2.605-37.896,0.646-47.551-24.177-49.823
				c-77.461-7.091-384.237-31.645-447.961-37.896c-73.001-7.162-126.102-8.397-126.102-8.397s-106.518,42.838-249.592,112.873
				c-108.846,53.28-127.114,63.878-127.114,63.878s-15.043,22.063-14.725,28.942c3.964,85.603,30.618,661.068,30.618,661.068
				c1.414,12.727,18.382,21.211,18.382,21.211s559.955,110.294,616.516,124.435c56.562,14.14,89.771-12.842,89.771-12.842
				l226.316-356.226c0,0,13.185-23.378,13.035-28.894C1098.003,684.06,1097.076,263.605,1094.8,230.485z"/>
		</g>
	</g>
</g>
<g id="Groupe_1_1_">
	<g id="Forme_2_copie_2">
		<g>
			<path fill-rule="evenodd" clip-rule="evenodd" fill="#5B6C98" class="bloc-face" d="M344.332,1018.332l-6.37-152.546
				c-0.612-14.655-12.267-28.428-26.033-30.763l-143.293-24.301c-13.766-2.335-24.429,7.653-23.817,22.308l6.37,152.546
				c0.612,14.655,12.268,28.428,26.033,30.763l143.293,24.301C334.28,1042.975,344.943,1032.986,344.332,1018.332z"/>
		</g>
	</g>
	<g id="Forme_2_copie_3">
		<g>
			<path fill-rule="evenodd" clip-rule="evenodd" fill="#5B6C98" class="bloc-face" d="M330.147,785.823l-6.37-152.546
				c-0.612-14.655-12.267-28.428-26.033-30.762l-143.293-24.302c-13.766-2.335-24.43,7.653-23.817,22.308l6.37,152.546
				c0.612,14.655,12.268,28.428,26.033,30.763l143.293,24.301C320.096,810.466,330.759,800.478,330.147,785.823z"/>
		</g>
	</g>
	<g id="Forme_2_copie_4">
		<g>
			<path fill-rule="evenodd" clip-rule="evenodd" fill="#5B6C98" class="bloc-face" d="M317.989,544.295l-6.37-152.546
				c-0.612-14.655-12.268-28.428-26.033-30.763l-143.293-24.301c-13.766-2.335-24.43,7.653-23.817,22.308l6.37,152.546
				c0.612,14.655,12.268,28.428,26.033,30.763l143.293,24.301C307.938,568.938,318.601,558.949,317.989,544.295z"/>
		</g>
	</g>
	<g id="Forme_2_copie_6">
		<g>
			<path fill-rule="evenodd" clip-rule="evenodd" fill="#5B6C98" class="bloc-face" d="M563.172,833.929l-6.37-152.546
				c-0.612-14.655-12.268-28.428-26.034-30.763l-143.293-24.301c-13.766-2.335-24.429,7.653-23.817,22.308l6.37,152.546
				c0.612,14.655,12.268,28.428,26.034,30.763l143.293,24.301C553.12,858.57,563.784,848.583,563.172,833.929z"/>
		</g>
	</g>
	<g id="Forme_2_copie_7">
		<g>
			<path fill-rule="evenodd" clip-rule="evenodd" fill="#5B6C98" class="bloc-face" d="M574.316,1067.439l-6.37-152.546
				c-0.612-14.655-12.268-28.428-26.033-30.763L398.621,859.83c-13.766-2.335-24.43,7.653-23.818,22.308l6.37,152.546
				c0.612,14.655,12.267,28.428,26.033,30.763l143.293,24.301C564.265,1092.082,574.929,1082.094,574.316,1067.439z"/>
		</g>
	</g>
	<g id="Forme_2_copie_5">
		<g>
			<path fill-rule="evenodd" clip-rule="evenodd" fill="#5B6C98" class="bloc-face" d="M553.041,585.385l-6.37-152.546
				c-0.612-14.655-12.268-28.428-26.034-30.763l-143.293-24.301c-13.766-2.335-24.429,7.653-23.817,22.308l6.37,152.546
				c0.612,14.655,12.268,28.428,26.033,30.763l143.293,24.301C542.989,610.027,553.652,600.039,553.041,585.385z"/>
		</g>
	</g>
	<g id="Forme_2_copie_8">
		<g>
			<path fill-rule="evenodd" clip-rule="evenodd" fill="#5B6C98" class="bloc-face" d="M794.842,466.913c-0.611-14.654-21.335-28.428-35.102-30.762
				L616.448,411.85c-13.766-2.334-24.429,7.653-23.817,22.309L599,586.704c0.612,14.654,12.268,28.427,26.033,30.762l143.293,24.301
				c13.767,2.335,33.497-7.652,32.885-22.308L794.842,466.913z"/>
		</g>
	</g>
	<g id="Forme_2_copie_9">
		<g>
			<path fill-rule="evenodd" clip-rule="evenodd" fill="#5B6C98" class="bloc-face" d="M812.871,871.01l-6.369-152.546
				c-0.612-14.655-19.824-28.428-33.59-30.763L629.619,663.4c-13.766-2.335-24.43,7.653-23.818,22.308l6.37,152.546
				c0.612,14.655,12.268,28.428,26.034,30.762l143.293,24.302C795.264,895.652,813.483,885.664,812.871,871.01z"/>
		</g>
	</g>
	<g id="Forme_2_copie_10">
		<g>
			<path fill-rule="evenodd" clip-rule="evenodd" fill="#5B6C98" class="bloc-face" d="M815.105,959.499c-0.612-14.654-21.336-26.933-35.102-29.267
				l-143.293-24.302c-13.766-2.334-24.43,7.653-23.817,22.308l6.37,152.547c0.612,14.654,12.268,28.427,26.034,30.762
				l143.293,24.301c13.766,2.335,33.496-9.147,32.885-23.803L815.105,959.499z"/>
		</g>
	</g>
	<g id="Forme_2">
		<g>
			<path fill-rule="evenodd" clip-rule="evenodd" fill="#C0C0C0" d="M350.899,585.616c-14.326-12.754-11.461-38.262-11.461-38.262
				s-2.396,13.707-12.894,24.091c-7.679,7.596-24.355,12.754-24.355,12.754c37.249,5.669,41.546,55.269,41.546,55.269
				s2.865-1.417,4.298-15.589c1.433-14.171,31.518-24.091,31.518-24.091S365.225,598.371,350.899,585.616z"/>
		</g>
	</g>
	<g id="Forme_2_copie">
		<g>
			<path fill-rule="evenodd" clip-rule="evenodd" fill="#C0C0C0" d="M594.055,628.711c-14.327-12.754-11.461-38.263-11.461-38.263
				s-3.737,18.399-14.234,28.783c-7.679,7.596-24.354,8.732-24.354,8.732c37.248,5.669,40.17,54.598,40.17,54.598
				s0.149-4.775,6.335-18.946c5.708-13.076,32.197-20.733,32.197-20.733S608.381,641.465,594.055,628.711z"/>
		</g>
	</g>
	<g id="Forme_3">
		<g>
			<polygon fill-rule="evenodd" clip-rule="evenodd" fill="#C0C0C0" points="116.837,546.059 116.073,549.996 809.463,681.789 
				810.227,677.852 			"/>
		</g>
	</g>
	<g id="Forme_2_copie_11">
		<g>
			<path fill-rule="evenodd" clip-rule="evenodd" fill="#C0C0C0" d="M362.709,831.128c-11.218-11.57-7.223-32.786-7.223-32.786
				s-2.865,11.349-12.316,19.415c-6.913,5.901-21.219,9.209-21.219,9.209c30.882,7.028,31.391,48.884,31.391,48.884
				s2.491-1.014,4.577-12.81c2.086-11.797,30.799-23.946,30.799-23.946S373.927,842.699,362.709,831.128z"/>
		</g>
	</g>
	<g id="Forme_2_copie_12">
		<g>
			<path fill-rule="evenodd" clip-rule="evenodd" fill="#C0C0C0" d="M589.552,840.265c0.006-0.948-0.049-1.505-0.049-1.505
				S589.505,839.305,589.552,840.265z M600.8,872.219c-9.451-9.749-10.996-26.818-11.248-31.954
				c-0.021,3.474-0.867,12.246-8.291,18.582c-6.914,5.901-18.354,13.46-18.354,13.46c30.882,7.028,28.526,44.633,28.526,44.633
				s2.491-1.014,4.577-12.81c2.086-11.797,27.934-18.278,27.934-18.278S612.018,883.789,600.8,872.219z"/>
		</g>
	</g>
	<g id="Forme_4">
		<g>
			<path fill-rule="evenodd" clip-rule="evenodd" fill="#C0C0C0" d="M333.588,363.99c-0.073-1.592-1.014-15.64,0.944-21.304
				c1.837-5.315,9.261-15.049,9.261-15.049l-6.514,3.326c0,0-7.718,1.151-7.718,33.556c0,63.32,32.714,699.41,32.714,699.41
				l3.369,1.158C365.644,1065.088,336.391,425.299,333.588,363.99z"/>
		</g>
	</g>
	<g id="Forme_4_copy">
		<g>
			<path fill-rule="evenodd" clip-rule="evenodd" fill="#C0C0C0" d="M604.644,1095.088c0,0-29.253-639.789-32.056-701.098
				c-0.073-1.592-1.014-15.64,0.944-21.304c1.837-5.315,9.261-15.049,9.261-15.049l-6.514,3.326c0,0-7.718,1.151-7.718,33.556
				c0,63.32,32.714,716.838,32.714,716.838l3.369,1.159c0,0-0.28-6.292-0.788-17.699L604.644,1095.088z"/>
		</g>
	</g>
	<g id="Forme_5">
		<g>
			<polygon fill-rule="evenodd" clip-rule="evenodd" fill="#C0C0C0" points="808.695,915.156 126.85,791.047 126.117,794.989 
				809.32,919.099 			"/>
		</g>
	</g>
</g>
<g id="Groupe_1_copie_2_1_">
	<g id="Forme_2_copie_2_1_">
		<g>
			<path fill-rule="evenodd" clip-rule="evenodd" fill="#FFFFFF" class="bloc-face" d="M404.726,267.166l-115.944-13.757
				c-10.785-1.279-25.974,0.678-34.05,4.397l-89.007,40.997c-9.056,4.171-7.421,8.826,3.798,10.365l120.892,16.591
				c12.024,1.65,28.844-0.664,37.417-5.134l84.054-43.829C419.494,272.83,416.23,268.531,404.726,267.166z"/>
		</g>
	</g>
	<g id="Forme_2_copie_3_1_">
		<g>
			<path fill-rule="evenodd" clip-rule="evenodd" fill="#FFFFFF" class="bloc-face" d="M521.34,205.072l-109.933-11.182
				c-10.25-1.043-24.096,0.678-31.03,3.862l-76.094,34.955c-7.709,3.541-5.413,7.439,5.249,8.684l114.578,13.366
				c11.365,1.326,26.559-0.678,33.812-4.448l71.446-37.138C535.864,209.795,532.222,206.179,521.34,205.072z"/>
		</g>
	</g>
	<g id="Forme_2_copie_4_1_">
		<g>
			<path fill-rule="evenodd" clip-rule="evenodd" fill="#FFFFFF" class="bloc-face" d="M627.597,149.813l-104.232-9.101
				c-9.739-0.851-22.41,0.67-28.389,3.413l-65.369,29.989c-6.597,3.027-3.819,6.313,6.306,7.32l108.548,10.801
				c10.742,1.068,24.537-0.68,30.709-3.883l61.05-31.688C641.794,153.771,637.893,150.712,627.597,149.813z"/>
		</g>
	</g>
	<g id="Forme_2_copie_6_1_">
		<g>
			<path fill-rule="evenodd" clip-rule="evenodd" fill="#FFFFFF" class="bloc-face" d="M731.846,225.778l-125.577-12.206
				c-11.693-1.137-26.514,0.678-33.216,4.076l-73.751,37.396c-7.492,3.799-3.75,8.007,8.492,9.371l131.75,14.68
				c13.088,1.459,29.387-0.675,36.267-4.733l67.574-39.868C749.512,230.879,744.293,226.988,731.846,225.778z"/>
		</g>
	</g>
	<g id="Forme_2_copie_7_1_">
		<g>
			<path fill-rule="evenodd" clip-rule="evenodd" fill="#FFFFFF" class="bloc-face" d="M619.709,295.704l-131.119-15.667
				c-12.177-1.455-28.212,0.701-35.952,4.848l-85.578,45.845c-8.736,4.68-5.602,9.933,7.159,11.697l137.774,19.046
				c13.73,1.898,31.543-0.681,39.621-5.719l78.916-49.219C637.648,302.095,632.741,297.262,619.709,295.704z"/>
		</g>
	</g>
	<g id="Forme_2_copie_5_1_">
		<g>
			<path fill-rule="evenodd" clip-rule="evenodd" fill="#FFFFFF" class="bloc-face" d="M827.309,167.521l-114.176-9.977
				c-10.654-0.932-23.684,0.688-29.191,3.638l-60.355,32.309c-6.104,3.269-2.11,6.835,9.027,7.943l119.57,11.907
				c11.849,1.18,26.057-0.696,31.626-4.167l54.957-34.237C843.772,171.818,838.601,168.507,827.309,167.521z"/>
		</g>
	</g>
	<g id="Forme_2_copie_8_1_">
		<g>
			<path fill-rule="evenodd" clip-rule="evenodd" fill="#FFFFFF" class="bloc-face" d="M1055.035,184.759l-129.28-11.254
				c-12.051-1.049-25.813,0.729-30.836,3.993l-55.177,35.855c-5.596,3.636,0.052,7.622,12.727,8.879l136.256,13.509
				c13.521,1.341,28.545-0.735,33.442-4.607l48.198-38.108C1074.744,189.563,1067.836,185.873,1055.035,184.759z"/>
		</g>
	</g>
	<g id="Forme_2_copie_9_1_">
		<g>
			<path fill-rule="evenodd" clip-rule="evenodd" fill="#FFFFFF" class="bloc-face" d="M968.525,251.942l-134.62-13.734
				c-12.515-1.276-27.239,0.711-33.002,4.466l-63.601,41.441c-6.479,4.222-1.146,8.922,12.047,10.466l142.275,16.649
				c14.162,1.657,30.386-0.701,36.1-5.23l55.941-44.354C988.723,257.637,981.891,253.306,968.525,251.942z"/>
		</g>
	</g>
	<g id="Forme_2_copie_10_1_">
		<g>
			<path fill-rule="evenodd" clip-rule="evenodd" fill="#FFFFFF" class="bloc-face" d="M867.225,327.698L721.29,310.191
				c-13.526-1.623-30.033,0.709-37.011,5.242l-77.426,50.304c-7.931,5.153-2.911,10.974,11.384,12.958l154.678,21.474
				c15.45,2.145,33.837-0.676,40.893-6.252l68.675-54.265C888.654,334.775,881.756,329.441,867.225,327.698z"/>
		</g>
	</g>
	<g id="Forme_2_1_">
		<g>
			<path fill-rule="evenodd" clip-rule="evenodd" fill="#C0C0C0" d="M589.541,201.725c-7.234-3.739,8.154-9.709,8.154-9.709
				s-9.05,3.158-24.171,5.18c-11.095,1.482-29.458,1.975-29.458,1.975c32.4,3.065,11.051,15.547,11.051,15.547
				s3.505-0.219,12.221-3.698c8.641-3.45,42.623-4.492,42.623-4.492S596.862,205.508,589.541,201.725z"/>
		</g>
	</g>
	<g id="Forme_2_copie_1_">
		<g>
			<path fill-rule="evenodd" clip-rule="evenodd" fill="#C0C0C0" d="M810.559,224.412c-8.974-4.064,5.438-10.504,5.438-10.504
				s-8.592,3.405-24.046,5.566c-11.341,1.587-30.767,2.087-30.767,2.087c35.592,3.381,14.129,16.738,14.129,16.738
				s2.413-1.29,15.516-4.786c12-3.203,43.146-3.856,43.146-3.856S819.646,228.529,810.559,224.412z"/>
		</g>
	</g>
	<g id="Forme_3_1_">
		<g>
			<polygon fill-rule="evenodd" clip-rule="evenodd" fill="#C0C0C0" points="394.643,182.261 391.838,183.125 1004.965,249.282 
				1007.736,247.845 			"/>
		</g>
	</g>
	<g id="Forme_2_copie_11_1_">
		<g>
			<path fill-rule="evenodd" clip-rule="evenodd" fill="#C0C0C0" d="M467.977,267.21c-4.611-3.962,11.73-9.71,11.73-9.71
				s-9.449,3.022-23.695,4.751c-10.444,1.267-26.806,1.367-26.806,1.367c27.04,3.825,2.5,16.028,2.5,16.028
				s3.174-0.145,12.434-3.481c9.191-3.313,45.797-5.098,45.797-5.098S472.641,271.218,467.977,267.21z"/>
		</g>
	</g>
	<g id="Forme_2_copie_12_1_">
		<g>
			<path fill-rule="evenodd" clip-rule="evenodd" fill="#C0C0C0" d="M702.392,283.939c0.478-0.274,0.711-0.443,0.711-0.443
				S702.829,283.655,702.392,283.939z M697.805,294.524c-5.255-3.665,2.178-9.024,4.587-10.585
				c-1.813,1.041-7.362,3.685-18.978,5.154c-10.758,1.36-27.403,2.937-27.403,2.937c30.201,4.245,6.99,15.999,6.99,15.999
				s3.351-0.151,12.188-3.778c8.768-3.598,41.133-3.877,41.133-3.877S704.088,298.907,697.805,294.524z"/>
		</g>
	</g>
	<g id="Forme_4_1_">
		<g>
			<polygon fill-rule="evenodd" clip-rule="evenodd" fill="#C0C0C0" points="676.063,149.537 336.67,330.245 339.508,330.891 
				679.791,149.643 			"/>
		</g>
	</g>
	<g id="Forme_6">
		<g>
			<polygon fill-rule="evenodd" clip-rule="evenodd" fill="#C0C0C0" points="888.85,166.004 576.278,362.184 579.506,362.914 
				893.475,166.662 			"/>
		</g>
	</g>
	<g id="Forme_5_1_">
		<g>
			<polygon fill-rule="evenodd" clip-rule="evenodd" fill="#C0C0C0" points="261.463,242.878 258.301,243.887 914.66,324.599 
				915.803,323.216 			"/>
		</g>
	</g>
</g>
<g id="Groupe_1_copie_1_">
	<g id="Forme_2_copie_2_2_">
		<g>
			<path fill-rule="evenodd" clip-rule="evenodd" fill="#FD8C3C" class="bloc-face" d="M1090.408,612.803c-0.139-11.771-3.604-16.963-7.773-11.534
				l-45.636,59.42c-4.61,6.003-8.215,21.02-8.013,33.469l2.085,128.272c0.198,12.197,4.07,16.597,8.611,9.899l44.976-66.323
				c4.111-6.063,7.31-20.288,7.174-31.836L1090.408,612.803z"/>
		</g>
	</g>
	<g id="Forme_2_copie_3_2_">
		<g>
			<path fill-rule="evenodd" clip-rule="evenodd" fill="#FD8C3C" class="bloc-face" d="M1089.563,422.731c-0.141-12.079-3.652-18.137-7.877-13.476
				l-46.267,51.049c-4.678,5.161-8.334,19.77-8.127,32.564l2.127,131.813c0.203,12.532,4.131,17.856,8.737,11.961l45.589-58.348
				c4.165-5.33,7.403-19.206,7.266-31.052L1089.563,422.731z"/>
		</g>
	</g>
	<g id="Forme_2_copie_4_2_">
		<g>
			<path fill-rule="evenodd" clip-rule="evenodd" fill="#FD8C3C" class="bloc-face" d="M1087.862,220.688c-0.144-12.42-3.711-19.427-8.002-15.601
				l-47.023,41.934c-4.757,4.242-8.475,18.413-8.263,31.593l2.185,135.759c0.208,12.905,4.204,19.244,8.888,14.221l46.323-49.681
				c4.229-4.535,7.517-18.039,7.376-30.216L1087.862,220.688z"/>
		</g>
	</g>
	<g id="Forme_2_copie_6_2_">
		<g>
			<path fill-rule="evenodd" clip-rule="evenodd" fill="#FD8C3C" class="bloc-face" d="M1013.678,515.982c-0.222-12.938-4.355-19.052-9.274-13.588
				l-54.093,60.089c-5.491,6.101-9.731,22.267-9.422,36.029l3.185,141.652c0.303,13.456,4.961,18.665,10.357,11.719l53.193-68.472
				c4.84-6.231,8.556-21.493,8.339-34.162L1013.678,515.982z"/>
		</g>
	</g>
	<g id="Forme_2_copie_7_2_">
		<g>
			<path fill-rule="evenodd" clip-rule="evenodd" fill="#FD8C3C" class="bloc-face" d="M1016.668,719.398c-0.216-12.57-4.278-17.683-9.112-11.346
				l-53.126,69.631c-5.39,7.063-9.553,23.677-9.252,37.021l3.094,137.374c0.295,13.052,4.864,17.189,10.161,9.333l52.257-77.504
				c4.76-7.059,8.415-22.698,8.203-35.011L1016.668,719.398z"/>
		</g>
	</g>
	<g id="Forme_2_copie_5_2_">
		<g>
			<path fill-rule="evenodd" clip-rule="evenodd" fill="#FD8C3C" class="bloc-face" d="M1009.771,293.308c-0.229-13.354-4.447-20.6-9.466-16.119
				L945.076,326.5c-5.612,5.011-9.943,20.673-9.623,34.911l3.295,146.519c0.313,13.916,5.076,20.336,10.589,14.418l54.294-58.287
				c4.936-5.3,8.723-20.14,8.498-33.213L1009.771,293.308z"/>
		</g>
	</g>
	<g id="Forme_2_copie_8_2_">
		<g>
			<path fill-rule="evenodd" clip-rule="evenodd" fill="#FD8C3C" class="bloc-face" d="M919.474,521.72l-3.706-148.966
				c-0.359-14.479-5.803-21.956-12.217-16.623l-71.01,59.045c-7.258,6.035-12.8,23.593-12.306,39.124l5.083,159.649
				c0.482,15.146,6.695,21.57,13.806,14.45l69.635-69.723C915.055,552.373,919.825,535.865,919.474,521.72z"/>
		</g>
	</g>
	<g id="Forme_2_copie_9_2_">
		<g>
			<path fill-rule="evenodd" clip-rule="evenodd" fill="#FD8C3C" class="bloc-face" d="M924.065,761.606l-3.483-144.032
				c-0.338-13.996-5.383-20.154-11.32-13.669l-65.645,71.693c-6.699,7.316-11.811,25.464-11.35,40.43l4.734,153.879
				c0.449,14.602,6.188,19.61,12.754,11.296l64.395-81.535C919.98,792.286,924.396,775.286,924.065,761.606z"/>
		</g>
	</g>
	<g id="Forme_2_copie_10_2_">
		<g>
			<path fill-rule="evenodd" clip-rule="evenodd" fill="#FD8C3C" class="bloc-face" d="M930.655,983.209l-3.325-139.226
				c-0.323-13.526-5.172-18.478-10.881-10.967l-63.037,82.929c-6.426,8.453-11.33,27.088-10.892,41.513l4.503,148.345
				c0.427,14.08,5.93,17.8,12.229,8.426l61.861-92.045C926.722,1013.84,930.971,996.435,930.655,983.209z"/>
		</g>
	</g>
	<g id="Forme_2_2_">
		<g>
			<path fill-rule="evenodd" clip-rule="evenodd" fill="#C0C0C0" d="M1024.545,439.916c-4.004-6.734-5.258-18.229-5.258-18.229
				s1.767,21.714-2.941,36.146c-4.746,14.55-9.881,19.218-9.881,19.218s11.107,1.516,12.036,13.523
				c0.925,11.969,1.979,12.495,1.979,12.495s0.062-44.164,12.9-57.53C1033.38,445.539,1027.451,444.805,1024.545,439.916z"/>
		</g>
	</g>
	<g id="Forme_2_copie_2_">
		<g>
			<path fill-rule="evenodd" clip-rule="evenodd" fill="#C0C0C0" d="M943.517,544.997c0,0-7.061-0.128-10.549-5.094
				c-4.81-6.847-6.367-19.162-6.367-19.162s2.226,23.328-3.312,39.497c-5.585,16.312-11.693,21.967-11.693,21.967
				s13.271,0.354,14.443,13.251c1.168,12.852,2.427,13.296,2.427,13.296S928.299,560.921,943.517,544.997z"/>
		</g>
	</g>
	<g id="Forme_3_2_">
		<g>
			<path fill-rule="evenodd" clip-rule="evenodd" fill="#C0C0C0" d="M1095.925,372.889c0,0-177.597,197.333-254.349,288.328
				c-14.578,17.283-40.679,14.442-40.679,14.442l-3.509,3.996c0,0,24.234,8.678,45.055-15.092
				c78.791-89.949,253.802-288.6,253.802-288.6L1095.925,372.889z"/>
		</g>
	</g>
	<g id="Forme_2_copie_11_2_">
		<g>
			<path fill-rule="evenodd" clip-rule="evenodd" fill="#C0C0C0" d="M1033.376,656.896c0,0-4.991,1.428-7.544-1.504
				c-3.514-4.036-4.843-12.822-4.843-12.822s2.007,16.803-1.573,29.954c-3.602,13.23-8.951,14.731-8.951,14.731
				s10.481,1.449,11.549,10.747c1.064,9.267,1.957,9.339,1.957,9.339S1022.945,671.968,1033.376,656.896z"/>
		</g>
	</g>
	<g id="Forme_2_copie_12_2_">
		<g>
			<path fill-rule="evenodd" clip-rule="evenodd" fill="#C0C0C0" d="M945.617,774.673c0,0-4.91-2.669-7.952-5.503
				c-4.188-3.903-5.812-13.217-5.812-13.217s2.47,17.878-1.709,32.537c-4.205,14.754-9.117,21.181-9.117,21.181
				s11.02-3.921,12.336,5.969c1.311,9.854,2.369,9.813,2.369,9.813S933.316,792.349,945.617,774.673z"/>
		</g>
	</g>
	<g id="Forme_4_2_">
		<g>
			<path fill-rule="evenodd" clip-rule="evenodd" fill="#C0C0C0" d="M1017.356,256.462c-0.112-7.423-12.433-9.27-12.433-9.27
				l-2.492,2.038c0,0,13.324,0.792,13.432,8.082c1.023,69.229,9.169,620.42,9.169,620.42l1.703-4.272
				C1026.735,873.46,1017.913,293.075,1017.356,256.462z"/>
		</g>
	</g>
	<g id="Forme_6_1_">
		<g>
			<path fill-rule="evenodd" clip-rule="evenodd" fill="#C0C0C0" d="M923.943,343.513c-0.028-1.11-0.111-10.988-2.229-13.815
				c-2.896-3.867-8.071-6.773-8.071-6.773l-1.386,0.666c0,0,5.239,3.162,8.082,7.181c1.948,2.753,1.838,12.516,1.867,13.637
				c1.017,38.925,17.254,660.896,17.254,660.896l1.634-1.677C941.094,1003.627,924.923,381.191,923.943,343.513z"/>
		</g>
	</g>
	<g id="Forme_5_2_">
		<g>
			<path fill-rule="evenodd" clip-rule="evenodd" fill="#C0C0C0" d="M1097.59,570.276c0,0-179.984,236.342-250.969,330.37
				c-3.615,4.789-7.396,8.522-13.916,10.443c-17.484,5.153-42.213,1.42-42.213,1.42l-3.201,2.63c0,0,45.73,10.752,58.799-6.19
				c74.212-96.215,251.806-335.733,251.806-335.733L1097.59,570.276z"/>
		</g>
	</g>
</g>
</svg>
